PathFileType	4	(X/Y/Z)	/Users/itak/Documents/Research/Walk-IL/dataset/trc/00006_00004.trc
DataRate	CameraRate	NumFrames	NumMarkers	Units	OrigDataRate	OrigDataStartFrame	OrigNumFrames
100.000000	100.000000	4	53	mm	100.000000	231	616
Frame#	Time	RPSI			LPSI			L3			STRN			T10			C7			CLAV			RBAK			LBAK			LSHO			LUPA			LAEL			LAOL			LWTS			LWPS			LFRA			LIFD			LHPS			LHTS			RSHO			RUPA			RAEL			RAOL			RWTS			RWPS			RFRA			RIFD			RHTS			RHPS			RBHD			LFHD			RFHD			LBHD			LHIP			RHIP			RASI			LASI			LKNE			LTHI			LANK			LTIP			LTOE			LMT1			LMT5			LHEE			RKNE			RTHI			RANK			RTIP			RTOE			RMT1			RMT5			RHEE			
		X1	Y1	Z1	X2	Y2	Z2	X3	Y3	Z3	X4	Y4	Z4	X5	Y5	Z5	X6	Y6	Z6	X7	Y7	Z7	X8	Y8	Z8	X9	Y9	Z9	X10	Y10	Z10	X11	Y11	Z11	X12	Y12	Z12	X13	Y13	Z13	X14	Y14	Z14	X15	Y15	Z15	X16	Y16	Z16	X17	Y17	Z17	X18	Y18	Z18	X19	Y19	Z19	X20	Y20	Z20	X21	Y21	Z21	X22	Y22	Z22	X23	Y23	Z23	X24	Y24	Z24	X25	Y25	Z25	X26	Y26	Z26	X27	Y27	Z27	X28	Y28	Z28	X29	Y29	Z29	X30	Y30	Z30	X31	Y31	Z31	X32	Y32	Z32	X33	Y33	Z33	X34	Y34	Z34	X35	Y35	Z35	X36	Y36	Z36	X37	Y37	Z37	X38	Y38	Z38	X39	Y39	Z39	X40	Y40	Z40	X41	Y41	Z41	X42	Y42	Z42	X43	Y43	Z43	X44	Y44	Z44	X45	Y45	Z45	X46	Y46	Z46	X47	Y47	Z47	X48	Y48	Z48	X49	Y49	Z49	X50	Y50	Z50	X51	Y51	Z51	X52	Y52	Z52	X53	Y53	Z53	

232	2.31	-1048.104248046875	1042.648559570312	-124.6209335327148	-1057.830200195312	1042.38525390625	-287.1111145019531	-1053.024780273438	1109.643432617188	-210.0257720947266	-818.63232421875	1288.9130859375	-214.530029296875	-1068.553100585938	1255.631713867188	-206.9917602539062	-1006.725280761719	1519.135620117188	-219.3784484863281	-853.9776000976562	1417.337890625	-219.5811920166016	-1062.91845703125	1386.362915039062	-136.1794128417969	-1030.278076171875	1478.413696289062	-316.2719421386719	-930.0040283203125	1478.240234375	-395.224609375	-975.9208374023438	1355.839111328125	-468.1060180664062	-1004.785583496094	1140.90234375	-492.8236999511719	-1053.940185546875	1134.002563476562	-398.6751098632812	-945.6398315429688	878.0222778320312	-445.6393432617188	-1027.3232421875	874.0160522460938	-480.3251953125	-1007.32080078125	1024.202026367188	-499.8506164550781	-941.1405639648438	692.8211059570312	-427.2833862304688	-1004.284484863281	780.82275390625	-482.5120239257812	-936.6980590820312	783.4514770507812	-461.7253112792969	-923.4835205078125	1501.743286132812	-47.5118293762207	-936.8270263671875	1430.098999023438	26.17402648925781	-978.900390625	1161.025756835938	51.73241806030273	-993.8470458984375	1135.225463867188	-44.50338363647461	-847.4049682617188	906.21240234375	-2.620442628860474	-904.6845092773438	887.1091918945312	66.96516418457031	-963.5048217773438	1083.941162109375	63.04759979248047	-828.833251953125	724.531494140625	-30.38247299194336	-810.0792236328125	796.5867919921875	3.858387470245361	-860.9041748046875	788.6962280273438	57.88148880004883	-945.83056640625	1698.69384765625	-289.0425415039062	-761.33203125	1700.640747070312	-171.6759338378906	-763.9078979492188	1698.918334960938	-270.0177612304688	-934.6265869140625	1696.269653320312	-144.6968994140625	-959.5570068359375	952.384765625	-403.2792663574219	-939.7850341796875	927.0162963867188	-26.81020164489746	-834.356201171875	956.9479370117188	-100.7300567626953	-845.9318237304688	992.7271728515625	-334.6577453613281	-748.2431640625	552.6588134765625	-369.1654052734375	-829.3516235351562	663.5526733398438	-407.6347045898438	-706.1563110351562	56.85991287231445	-396.7357788085938	-755.0769653320312	302.3274230957031	-402.9183349609375	-499.5685729980469	109.771842956543	-321.37060546875	-557.9601440429688	99.65402221679688	-306.6325073242188	-585.7279663085938	88.95063781738281	-408.9254150390625	-775.8057250976562	43.16959381103516	-347.0593566894531	-1009.423645019531	499.6194152832031	-88.04436492919922	-940.3696899414062	760.8710327148438	-40.83692932128906	-1241.774169921875	56.4119873046875	-124.4279861450195	-1065.3740234375	382.9037170410156	-92.26229858398438	-1014.845764160156	44.54431915283203	-181.8397674560547	-1078.387939453125	51.88156890869141	-206.4655914306641	-1091.496826171875	43.9485969543457	-109.89501953125	-1300.615966796875	66.49729156494141	-164.8857421875	
233	2.32	-1042.205078125	1041.9072265625	-126.1577758789062	-1051.482421875	1041.533203125	-288.9366760253906	-1046.928955078125	1108.727783203125	-211.5765075683594	-812.6160278320312	1288.098022460938	-215.6577606201172	-1062.412719726562	1254.721801757812	-208.5576934814453	-1000.752990722656	1518.270874023438	-221.0174255371094	-847.996826171875	1416.48779296875	-220.8802337646484	-1057.02978515625	1385.534790039062	-137.8092346191406	-1024.093139648438	1477.43896484375	-317.9008178710938	-923.7133178710938	1477.241455078125	-396.7034301757812	-969.6369018554688	1354.782836914062	-469.5184936523438	-998.8167114257812	1139.808715820312	-493.9984436035156	-1048.199462890625	1133.221069335938	-399.9020385742188	-941.241943359375	876.6110229492188	-446.2547912597656	-1022.81591796875	873.0387573242188	-481.1606140136719	-1001.873657226562	1023.105895996094	-500.8392333984375	-937.998046875	691.3764038085938	-427.5390625	-1000.349609375	779.7101440429688	-483.140380859375	-932.8453369140625	781.9404907226562	-462.1570739746094	-917.8043212890625	1501.035400390625	-48.97761535644531	-931.173583984375	1429.412719726562	24.74240303039551	-972.5289306640625	1160.151733398438	50.32350158691406	-987.451904296875	1134.315795898438	-45.93516159057617	-839.1775512695312	906.3499755859375	-4.501268863677979	-896.257568359375	886.6795043945312	65.08237457275391	-956.6991577148438	1083.067504882812	61.55165481567383	-818.8399047851562	724.998046875	-32.520263671875	-800.873046875	797.0619506835938	1.813872814178467	-851.7037963867188	788.6527709960938	55.83573150634766	-939.5986938476562	1697.975708007812	-290.5416259765625	-755.1395263671875	1699.593383789062	-173.1185607910156	-757.6771240234375	1697.846435546875	-271.4734802246094	-928.4347534179688	1695.559814453125	-146.1848754882812	-953.16015625	951.2116088867188	-404.1966247558594	-934.2142333984375	926.466552734375	-27.89918327331543	-828.5399780273438	956.1929931640625	-101.4621658325195	-839.4402465820312	991.731689453125	-335.4740295410156	-741.3773193359375	552.0643920898438	-369.60009765625	-822.4929809570312	662.737548828125	-408.3366088867188	-694.3173217773438	57.01665878295898	-397.3669738769531	-745.9796752929688	302.058349609375	-403.4987182617188	-488.4154663085938	112.3308181762695	-321.7175598144531	-546.7662353515625	101.6055679321289	-307.0696411132812	-574.3576049804688	90.49985504150391	-409.3726501464844	-763.9959106445312	42.55521774291992	-347.8009643554688	-1005.525939941406	499.3560485839844	-88.26198577880859	-935.4558715820312	760.45849609375	-41.54000473022461	-1241.525634765625	57.63606262207031	-124.2262802124023	-1062.384643554688	382.9354858398438	-92.38219451904297	-1014.749084472656	44.46818923950195	-181.8194427490234	-1078.2001953125	52.10097885131836	-206.3336944580078	-1091.421264648438	43.91324996948242	-109.8161773681641	-1300.218872070312	68.35343170166016	-164.6000061035156	
234	2.33	-1036.135864257812	1041.209716796875	-127.7809295654297	-1044.966430664062	1040.715698242188	-290.810546875	-1040.664794921875	1107.849731445312	-213.2062225341797	-806.4547119140625	1287.325561523438	-216.8332824707031	-1056.122802734375	1253.837646484375	-210.2077789306641	-994.652099609375	1517.439453125	-222.7343139648438	-841.8654174804688	1415.684692382812	-222.2322540283203	-1051.008666992188	1384.726440429688	-139.5268096923828	-1017.7626953125	1476.49658203125	-319.6095581054688	-917.2567749023438	1476.284790039062	-398.246826171875	-963.158203125	1353.763549804688	-471.0013122558594	-992.6298217773438	1138.751586914062	-495.234375	-1042.256713867188	1132.48193359375	-401.2060852050781	-936.6102905273438	875.2619018554688	-446.9136657714844	-1018.074645996094	872.1103515625	-482.0617980957031	-996.2035522460938	1022.050415039062	-501.8872985839844	-934.6807250976562	689.9605102539062	-427.8042602539062	-996.1911010742188	778.6486206054688	-483.8228454589844	-928.7666625976562	780.478759765625	-462.6321716308594	-912.0195922851562	1500.36474609375	-50.50868606567383	-925.4300537109375	1428.768676757812	23.2438793182373	-966.121826171875	1159.33251953125	48.81998062133789	-980.9680786132812	1133.457885742188	-47.46651840209961	-830.8875122070312	906.5836181640625	-6.388958930969238	-887.7911987304688	886.3179931640625	63.14202117919922	-949.8744506835938	1082.248046875	59.97026443481445	-808.7167358398438	725.581787109375	-34.68264389038086	-791.5987548828125	797.6281127929688	-0.2401118576526642	-842.4414672851562	788.69775390625	53.75151062011719	-933.2671508789062	1697.266723632812	-292.1245727539062	-748.869873046875	1698.62939453125	-174.6231231689453	-751.362060546875	1696.857055664062	-272.9909362792969	-922.1632080078125	1694.876342773438	-147.7558441162109	-946.54931640625	950.1012573242188	-405.2530517578125	-928.4825439453125	925.9639282226562	-29.08187294006348	-822.552490234375	955.47216796875	-102.2859497070312	-832.7736206054688	990.7775268554688	-336.3787841796875	-734.3712158203125	551.4307861328125	-370.0879821777344	-815.4296264648438	662.0596313476562	-409.0257568359375	-683.3956909179688	56.95522308349609	-397.8258361816406	-737.2406005859375	301.6984558105469	-404.003662109375	-478.1956481933594	114.2379455566406	-321.7333374023438	-536.5266723632812	103.0457000732422	-307.2041931152344	-563.8546142578125	91.55947113037109	-409.5494995117188	-753.2671508789062	41.95245742797852	-348.4452514648438	-1001.501281738281	499.1396484375	-88.49846649169922	-930.3819580078125	760.078125	-42.30371856689453	-1241.230590820312	58.95912551879883	-123.9643707275391	-1059.290771484375	383.0247497558594	-92.50706481933594	-1014.648742675781	44.38882446289062	-181.7962036132812	-1078.0205078125	52.35528564453125	-206.1942291259766	-1091.333862304688	43.88891220092773	-109.7297134399414	-1299.756958007812	70.34410095214844	-164.2063598632812	
235	2.34	-1029.88623046875	1040.561157226562	-129.4872436523438	-1038.282104492188	1039.930908203125	-292.7066040039062	-1034.222778320312	1107.008666992188	-214.9132537841797	-800.1355590820312	1286.598754882812	-218.0629730224609	-1049.682495117188	1252.981811523438	-211.9414520263672	-988.4149169921875	1516.638549804688	-224.5239410400391	-835.5757446289062	1414.933349609375	-223.6415710449219	-1044.848022460938	1383.9375	-141.3280487060547	-1011.284545898438	1475.590698242188	-321.3929748535156	-910.63427734375	1475.373779296875	-399.8540344238281	-956.486083984375	1352.788208007812	-472.5537414550781	-986.2252807617188	1137.737426757812	-496.5317077636719	-1036.108642578125	1131.785522460938	-402.5847473144531	-931.7390747070312	873.9761962890625	-447.6224060058594	-1013.084350585938	871.2345581054688	-483.033447265625	-990.3038940429688	1021.040344238281	-502.9961242675781	-931.173828125	688.5663452148438	-428.085693359375	-991.79638671875	777.6433715820312	-484.5663452148438	-924.4387817382812	779.074951171875	-463.1574096679688	-906.1214599609375	1499.731079101562	-52.10592269897461	-919.58544921875	1428.167358398438	21.67824745178223	-959.6797485351562	1158.5703125	47.22645950317383	-974.394775390625	1132.654541015625	-49.09016799926758	-822.549560546875	906.9012451171875	-8.285709381103516	-879.3054809570312	886.0227661132812	61.15161514282227	-943.0317993164062	1081.483276367188	58.31052780151367	-798.4988403320312	726.2740478515625	-36.86447525024414	-782.3016967773438	798.2774658203125	-2.302011966705322	-833.1381225585938	788.8248901367188	51.63299179077148	-926.8388061523438	1696.56982421875	-293.7852783203125	-742.522216796875	1697.75390625	-176.1898345947266	-744.9651489257812	1695.952270507812	-274.5691528320312	-915.8096923828125	1694.225463867188	-149.4032592773438	-939.6787109375	949.0737915039062	-406.4807739257812	-922.575927734375	925.5119018554688	-30.35895347595215	-816.3900756835938	954.7839965820312	-103.2083511352539	-825.9390869140625	989.864501953125	-337.3861083984375	-727.2233276367188	550.7548828125	-370.6158142089844	-808.170654296875	661.4937133789062	-409.71826171875	-673.4683227539062	56.64746856689453	-398.0797729492188	-728.875	301.2279052734375	-404.4148559570312	-468.9579772949219	115.3981323242188	-321.4046325683594	-527.270751953125	103.9017715454102	-307.0170593261719	-554.26513671875	92.07487487792969	-409.4345397949219	-743.6615600585938	41.33113861083984	-348.9524536132812	-997.3529663085938	498.9794616699219	-88.76657104492188	-925.137451171875	759.7393798828125	-43.13972091674805	-1240.876708984375	60.38887023925781	-123.6418914794922	-1056.084228515625	383.1767883300781	-92.63629150390625	-1014.544616699219	44.30776214599609	-181.7700805664062	-1077.852783203125	52.6452751159668	-206.0500946044922	-1091.221923828125	43.8783073425293	-109.6366882324219	-1299.229248046875	72.46996307373047	-163.7189788818359	
